<?xml version="1.0" encoding="UTF-8"?> <svg xmlns="http://www.w3.org/2000/svg" viewBox="0 0 152.00010681152344 30.75095558166504" fill="none"><path fill-rule="evenodd" clip-rule="evenodd" d="M35.691025080329496 14.150759943836613H32.750023013667054V9.44173163476994L35.64427504747792 9.452931642640264C37.11727608256591 9.452931642640264 37.888526624528986 10.623707465352508 37.888526624528986 11.78123327875388C37.888526624528986 12.774858976981514 37.12427608748486 14.150759943836613 35.691025080329496 14.150759943836613ZM31.773772327648963 7.2998051296234125C31.056771823807765 7.2998051296234125 30.62902152322468 7.723830427588913 30.62902152322468 8.432905925861157V20.66131451884822C30.62902152322468 21.33628999315814 31.029521804658987 21.739440276454623 31.70027227599997 21.739440276454623C32.359522739259816 21.739440276454623 32.75352301612653 21.33628999315814 32.75352301612653 20.66131451884822V16.299461453743984L35.70202508805927 16.29538645088045C38.53952708199149 16.282136441569577 40.07127815836354 13.92940978829233 40.07127815836354 11.722758237663067C40.07127815836354 9.242781494966305 38.06577674908387 7.2998051296234125 35.50452494927456 7.2998051296234125H31.773772327648963Z" fill="#E6E8EC" fill-opacity="0.7"></path><path fill-rule="evenodd" clip-rule="evenodd" d="M44.792531476020805 19.60281377503244V8.35835587347432C44.792531476020805 7.684405399884675 44.3920311945865 7.2812551165881905 43.72128072324551 7.2812551165881905C43.06153025963432 7.2812551165881905 42.668029983118956 7.684405399884675 42.668029983118956 8.35835587347432V20.293564260427573C42.668029983118956 21.212889906444047 43.13828031356711 21.739215276296513 43.95928089048987 21.739215276296513H50.27953533177626C50.95028580311724 21.739215276296513 51.35128608490291 21.33656499335138 51.35128608490291 20.66108951869011C51.35128608490291 19.998839053322136 50.95028580311724 19.60281377503244 50.27953533177626 19.60281377503244H44.792531476020805Z" fill="#E6E8EC" fill-opacity="0.7"></path><path fill-rule="evenodd" clip-rule="evenodd" d="M75.96855338362643 18.726238159056713C75.29205290824488 19.406288636932874 74.0110520080767 19.88121397066618 72.85280119416588 19.88121397066618C69.93579914436842 19.88121397066618 68.40979807203693 17.170637065925096 68.40979807203693 14.49416018514633C68.40979807203693 11.969883411319632 69.79404904475965 9.254206502994737 72.83430118116578 9.254206502994737C73.86705190688686 9.254206502994737 75.28080290033942 9.62530676376945 75.9883033975049 10.337432264184951C76.21005355333025 10.556832418358953 76.58130381421039 10.672382499556791 76.83330399129265 10.672382499556791C77.43380441326843 10.672382499556791 77.8865547314192 10.186257157953161 77.8865547314192 9.539781703670402C77.8865547314192 9.173781446479495 77.72255461617519 8.84903121827527 77.4135543990386 8.587381034411882C76.1428035060732 7.3952301966792655 74.2433021712805 6.97070489836241 72.8893012198147 6.97070489836241C68.45729810541555 6.97070489836241 66.13879647618846 10.819982603276403 66.13879647618846 14.622960275655041C66.13879647618846 18.21976280315299 68.21679793641441 22.090915523438703 72.77955114269255 22.090915523438703C74.45255231832202 22.090915523438703 76.20305354841132 21.468390085985785 77.3543043574032 20.459489377024298C77.62280454608013 20.214139204615037 77.75855464147266 19.886313974249987 77.75855464147266 19.48571369274541C77.75855464147266 18.841288239903196 77.33505434387607 18.40858793584171 76.7053039013461 18.40858793584171C76.42330370318261 18.40858793584171 76.18205353365445 18.51243800881787 75.96855338362643 18.726238159056713Z" fill="#E6E8EC" fill-opacity="0.7"></path><path fill-rule="evenodd" clip-rule="evenodd" d="M82.59155803765748 19.603738775682448V15.330435772802954H87.47131146669386C88.14206193803484 15.330435772802954 88.54256221946916 14.941035499168695 88.54256221946916 14.289985041671049C88.54256221946916 13.603309559139452 88.14206193803484 13.194059271556451 87.47131146669386 13.194059271556451H82.59155803765748V9.455231644256491H88.34981208402232C89.02106255571465 9.455231644256491 89.4220628375003 9.059206365966796 89.4220628375003 8.396455900247473C89.4220628375003 7.722480426640259 89.02106255571465 7.319330143343774 88.34981208402232 7.319330143343774H81.61130734882856C80.89480684533872 7.319330143343774 80.46680654457995 7.776955464920245 80.46680654457995 8.544056003967084V20.514914415971855C80.46680654457995 21.30951497434315 80.64905667264837 21.740140276946516 81.61130734882856 21.740140276946516H88.49656218714462C89.23631270697241 21.740140276946516 89.67781301721773 21.344639999025745 89.67781301721773 20.680864532586146C89.67781301721773 20.35711430508463 89.56281293640637 19.603738775682448 88.49656218714462 19.603738775682448H82.59155803765748Z" fill="#E6E8EC" fill-opacity="0.7"></path><path fill-rule="evenodd" clip-rule="evenodd" d="M97.94481882649973 13.577159540763653L97.39031843684847 13.285484335801474C96.1440675610994 12.63495887867275 94.96731673418849 12.020558446929329 94.96731673418849 11.218832883551245C94.96731673418849 10.086257087682421 95.9885674518284 9.318131547915307 96.94256812221124 9.312006543611224H96.96956814118434C98.2225690216767 9.312006543611224 99.15831967923515 9.83070690810555 99.7528200969947 10.288332229682018L99.84757016357621 10.34890727224852C100.09982034083416 10.511782386701984 100.36057052406511 10.680782505459534 100.67132074243143 10.680782505459534C101.24807114771792 10.680782505459534 101.71757147763904 10.180932154211245 101.71757147763904 9.566531722467824C101.71757147763904 9.047306357604578 101.36407122923198 8.680306099710966 101.04157100260885 8.40543090655427C100.75507080128317 8.184505751308642 99.22431972561384 7.083979977961589 97.23781832968561 7.083979977961589C94.53806643255132 7.083979977961589 92.65181510706951 8.814181193785918 92.65181510706951 11.292132935059698C92.65181510706951 13.428534436323767 94.79256661139036 14.529060209670819 96.74056798026434 15.529810912905239C97.04231819230631 15.686586023072191 97.35981841541592 15.82708612180258 97.67381863606603 15.96401121802079C98.99431956399113 16.543286625081613 99.7528200969947 16.957636916248422 99.80407013300845 18.10243772070784C99.8693201788601 19.564363748013346 97.04531819441442 20.766689592896007 94.45281637264551 19.174463474027732C94.16331616921174 18.996813349191765 93.86856596208872 18.889913274072345 93.58606576357388 18.889913274072345C92.94306531173304 18.889913274072345 92.55856504154204 19.272188542699812 92.55856504154204 19.91253899267849C92.55856504154204 20.228664214821862 92.67656512446152 20.683214534237507 93.24431552342364 21.056339796435203C94.26606624141492 21.70891525500448 95.41556704917706 22.039790487512786 96.66056792404775 22.039790487512786C100.16907038949664 22.039790487512786 102.10082174695165 20.607889481306074 102.10082174695165 18.009787655602004C102.10082174695165 15.553735929717515 100.35757052195699 14.73216035239069 98.81956944119302 14.00780984338459C98.5208192312592 13.866809744302849 98.2248190232578 13.727334646292736 97.94481882649973 13.577159540763653Z" fill="#E6E8EC" fill-opacity="0.7"></path><path fill-rule="evenodd" clip-rule="evenodd" d="M105.30432399807476 7.378905185207567C104.5880734947606 7.378905185207567 104.1778232064749 7.77138046100265 104.1778232064749 8.457030942813972C104.1778232064749 9.119781408533298 104.59907350249038 9.515306686471638 105.30432399807476 9.515306686471638H108.772326435064V20.649314510415728C108.772326435064 21.381290024779968 109.18007672159295 21.81804033168742 109.8630772015421 21.81804033168742C110.52232766480194 21.81804033168742 110.91632794166865 21.381290024779968 110.91632794166865 20.649314510415728V9.515306686471638H114.40308039183365C115.0860808717828 9.515306686471638 115.49333115796038 9.119781408533298 115.49333115796038 8.457030942813972C115.49333115796038 7.782055468504051 115.0860808717828 7.378905185207567 114.40308039183365 7.378905185207567H105.30432399807476Z" fill="#E6E8EC" fill-opacity="0.7"></path><path fill-rule="evenodd" clip-rule="evenodd" d="M122.95758640314402 15.739236060069734H119.43683392908697L121.22083518271695 10.836282614730534L122.95758640314402 15.739236060069734ZM122.63983617985876 8.485780963016811C122.38358599978997 7.783830469751358 121.87508564246328 7.397455198242789 121.20733517323042 7.397455198242789C120.53983470417323 7.397455198242789 120.03158434702219 7.783830469751358 119.77383416589937 8.489855965880343L115.6303312542313 20.284564254103206C115.58683122366351 20.416414346755175 115.53708118870384 20.59151446979924 115.53708118870384 20.778314601064984C115.53708118870384 21.400865038535464 115.93108146557054 21.81826533184553 116.51758187770842 21.81826533184553C116.83458210046668 21.81826533184553 117.41158250592883 21.69356524421792 117.71358271814645 20.85468965473426L118.76458345669192 17.87278755933109H123.65558689363378L124.97908782366702 21.11936484072334C125.14783794224888 21.569865157293016 125.51283819873709 21.81826533184553 126.00708854605021 21.81826533184553C126.60608896697194 21.81826533184553 127.02383926052795 21.39781503639221 127.02383926052795 20.795639613239388C127.02383926052795 20.686689536679417 127.01058925121707 20.474439387529774 126.92358919008154 20.26368923943419L122.63983617985876 8.485780963016811Z" fill="#E6E8EC" fill-opacity="0.7"></path><path fill-rule="evenodd" clip-rule="evenodd" d="M134.4695944927115 14.210409985753108H131.57634245960332V9.515631686700017H134.4705944934142C136.10509564198944 9.515631686700017 136.7145960702896 10.94395769039455 136.7145960702896 11.843933322813635C136.7145960702896 12.759158965949007 136.10509564198944 14.210409985753108 134.4695944927115 14.210409985753108ZM136.2535957463415 15.877661157342004C138.06084701630942 15.146710643698038 138.88984759885383 13.301984347396147 138.88984759885383 11.788133283602564C138.88984759885383 9.650206781266863 137.28809647329228 7.378905185207567 134.31934438712972 7.378905185207567H130.88534197403254C129.8903412748387 7.378905185207567 129.44734096353932 7.886930542200489 129.44734096353932 9.02460634165312V20.588739467849226C129.44734096353932 21.698415247626052 130.1968414902185 21.81804033168742 130.5188417164903 21.81804033168742C131.17809217975014 21.81804033168742 131.57209245661684 21.360415010110952 131.57209245661684 20.59381447141547V16.345461486068523H134.01859417579047L136.84359616093886 21.250464932848278C136.9768462545746 21.517190120277906 137.25434644957593 21.83686534491589 137.81834684590288 21.83686534491589C138.40509725821644 21.83686534491589 138.79859753473178 21.433715061619406 138.79859753473178 20.83306463953821C138.79859753473178 20.566839452459938 138.7273474846639 20.283814253576175 138.5823473827713 19.993164049334272L136.2535957463415 15.877661157342004Z" fill="#E6E8EC" fill-opacity="0.7"></path><path fill-rule="evenodd" clip-rule="evenodd" d="M141.8113496518135 7.378905185207567C141.09484914832365 7.378905185207567 140.68459886003797 7.77138046100265 140.68459886003797 8.457030942813972C140.68459886003797 9.119781408533298 141.10584915605344 9.515306686471638 141.8113496518135 9.515306686471638H145.27985208915408V20.649314510415728C145.27985208915408 21.381290024779968 145.68735237550734 21.81804033168742 146.36985285510514 21.81804033168742C147.02935331854064 21.81804033168742 147.4231035952317 21.381290024779968 147.4231035952317 20.649314510415728V9.515306686471638H150.91035604574805C151.59285652534584 9.515306686471638 152.00010681152344 9.119781408533298 152.00010681152344 8.457030942813972C152.00010681152344 7.782055468504051 151.59285652534584 7.378905185207567 150.91035604574805 7.378905185207567H141.8113496518135Z" fill="#E6E8EC" fill-opacity="0.7"></path><path fill-rule="evenodd" clip-rule="evenodd" d="M60.64129261305457 15.693336027815466H57.12104013934888L58.905041392978866 10.790382582476262L60.64129261305457 15.693336027815466ZM60.32529239099903 8.439880930762541C60.07004221163297 7.737930437497088 59.560791853779236 7.351555165988519 58.892791384370696 7.351555165988519C58.22454091478648 7.351555165988519 57.71604055745978 7.737930437497088 57.4587903766883 8.443955933626073L53.31628746572293 20.237639221128664C53.27228743480381 20.368464313060358 53.22278740001979 20.543564436104422 53.22278740001979 20.731414568108004C53.22278740001979 21.353940005560922 53.61653767671083 21.771365298888558 54.203038088848714 21.771365298888558C54.520538311958305 21.771365298888558 55.097788717596146 21.646640211243376 55.398538928935395 20.807764621759713L56.45028966800789 17.825862526356545H61.341043104774066L62.6645440348073 21.07246480776636C62.83329415338917 21.522940124318474 63.19829440987737 21.771365298888558 63.69304475754185 21.771365298888558C64.29154517811223 21.771365298888558 64.70929547166824 21.350890003417664 64.70929547166824 20.749739580985118C64.70929547166824 20.64078950442515 64.69604546235736 20.42751435455523 64.60904540122182 20.216789206477213L60.32529239099903 8.439880930762541Z" fill="#E6E8EC" fill-opacity="0.7"></path><path fill-rule="evenodd" clip-rule="evenodd" d="M12.23853360010197 22.86949107054911C11.445083042538792 22.861866065190966 9.796931884371606 22.55441584914358 8.519905986996699 22.267815647747643C8.109255698429909 22.173140581218817 7.665180386375125 22.302940672430235 7.363405174315603 22.60071588167893L1.892288829724412 28.004019678617777C1.8897563279448057 21.594890174878266 1.8882363268766904 12.536183809262827 1.8902638283014295 12.303058645444167C1.9535563727775371 6.566804614538895 6.633754661585154 1.9010438358766153 12.32158365846182 1.9010438358766153H12.390958707212146C15.150560646403463 1.9188588483953475 17.758262478853524 3.040752136757499 19.733538866893866 5.058053554329119C21.70274025066526 7.066679965804752 22.773666003212174 9.692756811167063 22.749365986136382 12.452708750604327C22.699240950913175 18.09886271819566 17.92891259877054 22.86949107054911 12.332733666297008 22.86949107054911H12.23853360010197ZM12.401833714854089 0H12.320808657917222C5.602553936953293 0 0.07625530358512778 5.50972887172448 0.0013155359244361676 12.279308628754865C-0.0017225662104591569 12.558258824775091 0.0013155359244361676 23.193916298524954 0.0023282366360679423 27.73651949064355L0.002834576991876803 29.467270706854364C0.002834576991876803 29.828020960356056 0.1461316026876851 30.16002119365491 0.40690278593339413 30.402771364237132C0.6459004538787039 30.626771521643587 0.9567981723486748 30.75102160895498 1.2823809011379042 30.75102160895498C1.6180911370438023 30.75102160895498 1.9350663597844775 30.619771516724633 2.1760890291527697 30.382021349655954L8.44368093343283 24.194667001759374C9.459431647207861 24.412042154510395 11.217982882953944 24.75766739738364 12.222083588542436 24.76734240418233H12.33195866575241C18.94336331163205 24.76734240418233 24.578042271159823 19.133913445532947 24.63676731242631 12.46715876075845C24.66564233271699 9.201206465751246 23.401791444600253 6.095129283089387 21.078664812123147 3.7235526165661055C18.748438174656815 1.344855945039548 15.667286009509938 0.02239729073873068 12.401833714854089 0Z" fill="#E6E8EC" fill-opacity="0.7"></path><path fill-rule="evenodd" clip-rule="evenodd" d="M14.218984991778825 7.484305259272926C13.974934820283085 7.557605310781378 13.77340967866998 7.7210054256037655 13.651884593273463 7.944480582641299C13.529859507525593 8.169455740732895 13.502509488306545 8.42855592280438 13.574909539182562 8.673906095213638C13.646809589707223 8.918756267271542 13.809359703932309 9.12135640964006 14.033159861198222 9.243506495475767C15.191685675302303 9.876756940465222 15.911186180900271 11.093832795712823 15.911186180900271 12.41833372644876C15.911186180900271 14.410160126118909 14.299510048364336 16.029386263960287 12.31868365642397 16.029386263960287C10.338357264834956 16.029386263960287 8.72668113229902 14.410160126118909 8.72668113229902 12.41833372644876C8.72668113229902 11.174782852596985 9.35200657171952 10.033032050280822 10.399132307541997 9.366706582049318C10.841157618156233 9.083181382814207 10.973307711019013 8.490155966091155 10.69280751390959 8.044255652753929C10.556607418200842 7.827905500723185 10.344432269103901 7.678255395563025 10.095832094410845 7.622255356211411C9.848231920420494 7.569330319020622 9.59303174108957 7.612580349412716 9.378831590569646 7.7485054449282185C7.777280465148625 8.769106162111381 6.821304793377926 10.514557388651998 6.821304793377926 12.41833372644876C6.821304793377926 15.465910868002236 9.287706526535434 17.945387610347645 12.31868365642397 17.945387610347645C15.350160786663857 17.945387610347645 17.816562519821364 15.465910868002236 17.816562519821364 12.41833372644876C17.816562519821364 10.39188230244737 16.71578674629864 8.530355994339992 14.943560500943033 7.561680313644911C14.720785344397394 7.439505227791635 14.463035163274563 7.4110052077644735 14.218984991778825 7.484305259272926Z" fill="#E6E8EC" fill-opacity="0.7"></path><path fill-rule="evenodd" clip-rule="evenodd" d="M11.250982906143289 7.187480050691804V11.249532905124362C11.250982906143289 11.77790827641738 11.678333206445291 12.207533578318044 12.203433575436941 12.207533578318044C12.728508944411026 12.207533578318044 13.155884244730597 11.77790827641738 13.155884244730597 11.249532905124362V7.187480050691804C13.155884244730597 6.659129679416355 12.728508944411026 6.229504377515692 12.203433575436941 6.229504377515692C11.678333206445291 6.229504377515692 11.250982906143289 6.659129679416355 11.250982906143289 7.187480050691804Z" fill="#E6E8EC" fill-opacity="0.7"></path></svg> 