<?xml version="1.0" encoding="UTF-8"?> <svg xmlns="http://www.w3.org/2000/svg" viewBox="0 0 160 160" fill="none"><path d="M66.20675 11.0332H60.6895V16.55045H66.20675V11.0332Z" fill="#E6E8EC"></path><path d="M71.72425 11.0332H66.207V16.55045H71.72425V11.0332Z" fill="#E6E8EC"></path><path d="M77.24075 11.0332H71.72375V16.55045H77.24075V11.0332Z" fill="#E6E8EC"></path><path d="M104.82675 11.0332H99.3095V16.55045H104.82675V11.0332Z" fill="#E6E8EC"></path><path d="M66.20675 16.550775H60.6895V22.068025H66.20675V16.550775Z" fill="#E6E8EC"></path><path d="M82.7595 16.550775H77.24225V22.068025H82.7595V16.550775Z" fill="#E6E8EC"></path><path d="M88.276 16.550775H82.75875V22.068025H88.276V16.550775Z" fill="#E6E8EC"></path><path d="M99.31025 16.550775H93.793V22.068025H99.31025V16.550775Z" fill="#E6E8EC"></path><path d="M104.82775 16.550775H99.3105V22.068025H104.82775V16.550775Z" fill="#E6E8EC"></path><path d="M60.69 22.06835H55.17275V27.5855H60.69V22.06835Z" fill="#E6E8EC"></path><path d="M93.7935 22.06835H88.27625V27.5855H93.7935V22.06835Z" fill="#E6E8EC"></path><path d="M60.69 27.584H55.17275V33.10125H60.69V27.584Z" fill="#E6E8EC"></path><path d="M66.20675 27.584H60.6895V33.10125H66.20675V27.584Z" fill="#E6E8EC"></path><path d="M71.72425 27.584H66.207V33.10125H71.72425V27.584Z" fill="#E6E8EC"></path><path d="M77.24075 27.584H71.72375V33.10125H77.24075V27.584Z" fill="#E6E8EC"></path><path d="M88.276 27.584H82.75875V33.10125H88.276V27.584Z" fill="#E6E8EC"></path><path d="M99.31025 27.584H93.793V33.10125H99.31025V27.584Z" fill="#E6E8EC"></path><path d="M60.69 33.1015H55.17275V38.61875H60.69V33.1015Z" fill="#E6E8EC"></path><path d="M66.20675 33.1015H60.6895V38.61875H66.20675V33.1015Z" fill="#E6E8EC"></path><path d="M71.72425 33.1015H66.207V38.61875H71.72425V33.1015Z" fill="#E6E8EC"></path><path d="M88.276 33.1015H82.75875V38.61875H88.276V33.1015Z" fill="#E6E8EC"></path><path d="M104.82775 33.1015H99.3105V38.61875H104.82775V33.1015Z" fill="#E6E8EC"></path><path d="M60.69 38.61925H55.17275V44.1365H60.69V38.61925Z" fill="#E6E8EC"></path><path d="M71.72425 38.61925H66.207V44.1365H71.72425V38.61925Z" fill="#E6E8EC"></path><path d="M77.24075 38.61925H71.72375V44.1365H77.24075V38.61925Z" fill="#E6E8EC"></path><path d="M88.276 38.61925H82.75875V44.1365H88.276V38.61925Z" fill="#E6E8EC"></path><path d="M93.7935 38.61925H88.27625V44.1365H93.7935V38.61925Z" fill="#E6E8EC"></path><path d="M99.31025 38.61925H93.793V44.1365H99.31025V38.61925Z" fill="#E6E8EC"></path><path d="M60.69 44.13675H55.17275V49.654H60.69V44.13675Z" fill="#E6E8EC"></path><path d="M71.72425 44.13675H66.207V49.654H71.72425V44.13675Z" fill="#E6E8EC"></path><path d="M82.7595 44.13675H77.24225V49.654H82.7595V44.13675Z" fill="#E6E8EC"></path><path d="M93.7935 44.13675H88.27625V49.654H93.7935V44.13675Z" fill="#E6E8EC"></path><path d="M104.82775 44.13675H99.3105V49.654H104.82775V44.13675Z" fill="#E6E8EC"></path><path d="M60.69 49.65425H55.17275V55.1715H60.69V49.65425Z" fill="#E6E8EC"></path><path d="M66.20675 49.65425H60.6895V55.1715H66.20675V49.65425Z" fill="#E6E8EC"></path><path d="M77.24075 49.65425H71.72375V55.1715H77.24075V49.65425Z" fill="#E6E8EC"></path><path d="M82.7585 49.65425H77.24125V55.1715H82.7585V49.65425Z" fill="#E6E8EC"></path><path d="M93.7935 49.65425H88.27625V55.1715H93.7935V49.65425Z" fill="#E6E8EC"></path><path d="M104.82675 49.65425H99.3095V55.1715H104.82675V49.65425Z" fill="#E6E8EC"></path><path d="M16.5524 55.172H11.03515V60.689H16.5524V55.172Z" fill="#E6E8EC"></path><path d="M27.5865 55.172H22.069325V60.689H27.5865V55.172Z" fill="#E6E8EC"></path><path d="M33.10325 55.172H27.586V60.689H33.10325V55.172Z" fill="#E6E8EC"></path><path d="M38.62075 55.172H33.1035V60.689H38.62075V55.172Z" fill="#E6E8EC"></path><path d="M44.13825 55.172H38.621V60.689H44.13825V55.172Z" fill="#E6E8EC"></path><path d="M49.656 55.172H44.13875V60.689H49.656V55.172Z" fill="#E6E8EC"></path><path d="M82.7595 55.172H77.24225V60.689H82.7595V55.172Z" fill="#E6E8EC"></path><path d="M88.276 55.172H82.75875V60.689H88.276V55.172Z" fill="#E6E8EC"></path><path d="M93.7935 55.172H88.27625V60.689H93.7935V55.172Z" fill="#E6E8EC"></path><path d="M115.863 55.172H110.34575V60.689H115.863V55.172Z" fill="#E6E8EC"></path><path d="M121.3795 55.172H115.86225V60.689H121.3795V55.172Z" fill="#E6E8EC"></path><path d="M126.89625 55.172H121.379V60.689H126.89625V55.172Z" fill="#E6E8EC"></path><path d="M132.41475 55.172H126.8975V60.689H132.41475V55.172Z" fill="#E6E8EC"></path><path d="M137.93125 55.172H132.414V60.689H137.93125V55.172Z" fill="#E6E8EC"></path><path d="M22.069 60.6895H16.55175V66.20675H22.069V60.6895Z" fill="#E6E8EC"></path><path d="M44.13725 60.6895H38.62V66.20675H44.13725V60.6895Z" fill="#E6E8EC"></path><path d="M55.1725 60.6895H49.65525V66.20675H55.1725V60.6895Z" fill="#E6E8EC"></path><path d="M71.72425 60.6895H66.207V66.20675H71.72425V60.6895Z" fill="#E6E8EC"></path><path d="M77.24075 60.6895H71.72375V66.20675H77.24075V60.6895Z" fill="#E6E8EC"></path><path d="M82.7585 60.6895H77.24125V66.20675H82.7585V60.6895Z" fill="#E6E8EC"></path><path d="M88.276 60.6895H82.75875V66.20675H88.276V60.6895Z" fill="#E6E8EC"></path><path d="M121.3795 60.6895H115.86225V66.20675H121.3795V60.6895Z" fill="#E6E8EC"></path><path d="M143.449 60.6895H137.93175V66.20675H143.449V60.6895Z" fill="#E6E8EC"></path><path d="M16.551425 66.205H11.034175V71.72225H16.551425V66.205Z" fill="#E6E8EC"></path><path d="M27.5865 66.205H22.069325V71.72225H27.5865V66.205Z" fill="#E6E8EC"></path><path d="M38.62075 66.205H33.1035V71.72225H38.62075V66.205Z" fill="#E6E8EC"></path><path d="M49.655 66.205H44.13775V71.72225H49.655V66.205Z" fill="#E6E8EC"></path><path d="M55.1725 66.205H49.65525V71.72225H55.1725V66.205Z" fill="#E6E8EC"></path><path d="M66.20675 66.205H60.6895V71.72225H66.20675V66.205Z" fill="#E6E8EC"></path><path d="M71.72425 66.205H66.207V71.72225H71.72425V66.205Z" fill="#E6E8EC"></path><path d="M82.7585 66.205H77.24125V71.72225H82.7585V66.205Z" fill="#E6E8EC"></path><path d="M88.276 66.205H82.75875V71.72225H88.276V66.205Z" fill="#E6E8EC"></path><path d="M99.31025 66.205H93.793V71.72225H99.31025V66.205Z" fill="#E6E8EC"></path><path d="M104.82675 66.205H99.3095V71.72225H104.82675V66.205Z" fill="#E6E8EC"></path><path d="M115.862 66.205H110.34475V71.72225H115.862V66.205Z" fill="#E6E8EC"></path><path d="M132.41475 66.205H126.8975V71.72225H132.41475V66.205Z" fill="#E6E8EC"></path><path d="M143.449 66.205H137.93175V71.72225H143.449V66.205Z" fill="#E6E8EC"></path><path d="M148.9645 66.205H143.44725V71.72225H148.9645V66.205Z" fill="#E6E8EC"></path><path d="M38.62075 71.72275H33.1035V77.24H38.62075V71.72275Z" fill="#E6E8EC"></path><path d="M44.13825 71.72275H38.621V77.24H44.13825V71.72275Z" fill="#E6E8EC"></path><path d="M60.69 71.72275H55.17275V77.24H60.69V71.72275Z" fill="#E6E8EC"></path><path d="M93.7935 71.72275H88.27625V77.24H93.7935V71.72275Z" fill="#E6E8EC"></path><path d="M110.34525 71.72275H104.828V77.24H110.34525V71.72275Z" fill="#E6E8EC"></path><path d="M115.863 71.72275H110.34575V77.24H115.863V71.72275Z" fill="#E6E8EC"></path><path d="M121.3795 71.72275H115.86225V77.24H121.3795V71.72275Z" fill="#E6E8EC"></path><path d="M148.9645 71.72275H143.44725V77.24H148.9645V71.72275Z" fill="#E6E8EC"></path><path d="M16.551425 77.24025H11.034175V82.7575H16.551425V77.24025Z" fill="#E6E8EC"></path><path d="M44.13725 77.24025H38.62V82.7575H44.13725V77.24025Z" fill="#E6E8EC"></path><path d="M49.655 77.24025H44.13775V82.7575H49.655V77.24025Z" fill="#E6E8EC"></path><path d="M60.69 77.24025H55.17275V82.7575H60.69V77.24025Z" fill="#E6E8EC"></path><path d="M66.20675 77.24025H60.6895V82.7575H66.20675V77.24025Z" fill="#E6E8EC"></path><path d="M71.72425 77.24025H66.207V82.7575H71.72425V77.24025Z" fill="#E6E8EC"></path><path d="M77.24075 77.24025H71.72375V82.7575H77.24075V77.24025Z" fill="#E6E8EC"></path><path d="M82.7585 77.24025H77.24125V82.7575H82.7585V77.24025Z" fill="#E6E8EC"></path><path d="M88.276 77.24025H82.75875V82.7575H88.276V77.24025Z" fill="#E6E8EC"></path><path d="M93.7935 77.24025H88.27625V82.7575H93.7935V77.24025Z" fill="#E6E8EC"></path><path d="M110.34525 77.24025H104.828V82.7575H110.34525V77.24025Z" fill="#E6E8EC"></path><path d="M115.862 77.24025H110.34475V82.7575H115.862V77.24025Z" fill="#E6E8EC"></path><path d="M121.3795 77.24025H115.86225V82.7575H121.3795V77.24025Z" fill="#E6E8EC"></path><path d="M126.89625 77.24025H121.379V82.7575H126.89625V77.24025Z" fill="#E6E8EC"></path><path d="M137.93125 77.24025H132.414V82.7575H137.93125V77.24025Z" fill="#E6E8EC"></path><path d="M143.449 77.24025H137.93175V82.7575H143.449V77.24025Z" fill="#E6E8EC"></path><path d="M148.9645 77.24025H143.44725V82.7575H148.9645V77.24025Z" fill="#E6E8EC"></path><path d="M16.5524 82.75775H11.03515V88.275H16.5524V82.75775Z" fill="#E6E8EC"></path><path d="M22.069 82.75775H16.55175V88.275H22.069V82.75775Z" fill="#E6E8EC"></path><path d="M44.13825 82.75775H38.621V88.275H44.13825V82.75775Z" fill="#E6E8EC"></path><path d="M60.69 82.75775H55.17275V88.275H60.69V82.75775Z" fill="#E6E8EC"></path><path d="M66.20675 82.75775H60.6895V88.275H66.20675V82.75775Z" fill="#E6E8EC"></path><path d="M82.7595 82.75775H77.24225V88.275H82.7595V82.75775Z" fill="#E6E8EC"></path><path d="M93.7935 82.75775H88.27625V88.275H93.7935V82.75775Z" fill="#E6E8EC"></path><path d="M104.82775 82.75775H99.3105V88.275H104.82775V82.75775Z" fill="#E6E8EC"></path><path d="M110.34525 82.75775H104.828V88.275H110.34525V82.75775Z" fill="#E6E8EC"></path><path d="M121.3795 82.75775H115.86225V88.275H121.3795V82.75775Z" fill="#E6E8EC"></path><path d="M132.41475 82.75775H126.8975V88.275H132.41475V82.75775Z" fill="#E6E8EC"></path><path d="M143.449 82.75775H137.93175V88.275H143.449V82.75775Z" fill="#E6E8EC"></path><path d="M16.551425 88.2755H11.034175V93.79275H16.551425V88.2755Z" fill="#E6E8EC"></path><path d="M49.655 88.2755H44.13775V93.79275H49.655V88.2755Z" fill="#E6E8EC"></path><path d="M55.1725 88.2755H49.65525V93.79275H55.1725V88.2755Z" fill="#E6E8EC"></path><path d="M60.69 88.2755H55.17275V93.79275H60.69V88.2755Z" fill="#E6E8EC"></path><path d="M66.20675 88.2755H60.6895V93.79275H66.20675V88.2755Z" fill="#E6E8EC"></path><path d="M93.7935 88.2755H88.27625V93.79275H93.7935V88.2755Z" fill="#E6E8EC"></path><path d="M99.31025 88.2755H93.793V93.79275H99.31025V88.2755Z" fill="#E6E8EC"></path><path d="M115.862 88.2755H110.34475V93.79275H115.862V88.2755Z" fill="#E6E8EC"></path><path d="M121.3795 88.2755H115.86225V93.79275H121.3795V88.2755Z" fill="#E6E8EC"></path><path d="M126.89625 88.2755H121.379V93.79275H126.89625V88.2755Z" fill="#E6E8EC"></path><path d="M132.41475 88.2755H126.8975V93.79275H132.41475V88.2755Z" fill="#E6E8EC"></path><path d="M143.449 88.2755H137.93175V93.79275H143.449V88.2755Z" fill="#E6E8EC"></path><path d="M148.9645 88.2755H143.44725V93.79275H148.9645V88.2755Z" fill="#E6E8EC"></path><path d="M16.5524 93.793H11.03515V99.31025H16.5524V93.793Z" fill="#E6E8EC"></path><path d="M33.10325 93.793H27.586V99.31025H33.10325V93.793Z" fill="#E6E8EC"></path><path d="M60.69 93.793H55.17275V99.31025H60.69V93.793Z" fill="#E6E8EC"></path><path d="M66.20675 93.793H60.6895V99.31025H66.20675V93.793Z" fill="#E6E8EC"></path><path d="M104.82775 93.793H99.3105V99.31025H104.82775V93.793Z" fill="#E6E8EC"></path><path d="M115.863 93.793H110.34575V99.31025H115.863V93.793Z" fill="#E6E8EC"></path><path d="M121.3795 93.793H115.86225V99.31025H121.3795V93.793Z" fill="#E6E8EC"></path><path d="M126.89625 93.793H121.379V99.31025H126.89625V93.793Z" fill="#E6E8EC"></path><path d="M148.9645 93.793H143.44725V99.31025H148.9645V93.793Z" fill="#E6E8EC"></path><path d="M16.5524 99.3085H11.03515V104.82575H16.5524V99.3085Z" fill="#E6E8EC"></path><path d="M27.5865 99.3085H22.069325V104.82575H27.5865V99.3085Z" fill="#E6E8EC"></path><path d="M33.10325 99.3085H27.586V104.82575H33.10325V99.3085Z" fill="#E6E8EC"></path><path d="M44.13825 99.3085H38.621V104.82575H44.13825V99.3085Z" fill="#E6E8EC"></path><path d="M49.656 99.3085H44.13875V104.82575H49.656V99.3085Z" fill="#E6E8EC"></path><path d="M66.20675 99.3085H60.6895V104.82575H66.20675V99.3085Z" fill="#E6E8EC"></path><path d="M71.72425 99.3085H66.207V104.82575H71.72425V99.3085Z" fill="#E6E8EC"></path><path d="M77.24175 99.3085H71.7245V104.82575H77.24175V99.3085Z" fill="#E6E8EC"></path><path d="M82.7595 99.3085H77.24225V104.82575H82.7595V99.3085Z" fill="#E6E8EC"></path><path d="M88.276 99.3085H82.75875V104.82575H88.276V99.3085Z" fill="#E6E8EC"></path><path d="M93.7935 99.3085H88.27625V104.82575H93.7935V99.3085Z" fill="#E6E8EC"></path><path d="M104.82775 99.3085H99.3105V104.82575H104.82775V99.3085Z" fill="#E6E8EC"></path><path d="M110.34525 99.3085H104.828V104.82575H110.34525V99.3085Z" fill="#E6E8EC"></path><path d="M115.863 99.3085H110.34575V104.82575H115.863V99.3085Z" fill="#E6E8EC"></path><path d="M121.3795 99.3085H115.86225V104.82575H121.3795V99.3085Z" fill="#E6E8EC"></path><path d="M126.89625 99.3085H121.379V104.82575H126.89625V99.3085Z" fill="#E6E8EC"></path><path d="M137.93125 99.3085H132.414V104.82575H137.93125V99.3085Z" fill="#E6E8EC"></path><path d="M60.69 104.82625H55.17275V110.3435H60.69V104.82625Z" fill="#E6E8EC"></path><path d="M77.24075 104.82625H71.72375V110.3435H77.24075V104.82625Z" fill="#E6E8EC"></path><path d="M88.276 104.82625H82.75875V110.3435H88.276V104.82625Z" fill="#E6E8EC"></path><path d="M99.31025 104.82625H93.793V110.3435H99.31025V104.82625Z" fill="#E6E8EC"></path><path d="M104.82675 104.82625H99.3095V110.3435H104.82675V104.82625Z" fill="#E6E8EC"></path><path d="M126.89625 104.82625H121.379V110.3435H126.89625V104.82625Z" fill="#E6E8EC"></path><path d="M132.41475 104.82625H126.8975V110.3435H132.41475V104.82625Z" fill="#E6E8EC"></path><path d="M66.20675 110.34375H60.6895V115.861H66.20675V110.34375Z" fill="#E6E8EC"></path><path d="M88.276 110.34375H82.75875V115.861H88.276V110.34375Z" fill="#E6E8EC"></path><path d="M104.82775 110.34375H99.3105V115.861H104.82775V110.34375Z" fill="#E6E8EC"></path><path d="M115.863 110.34375H110.34575V115.861H115.863V110.34375Z" fill="#E6E8EC"></path><path d="M126.89625 110.34375H121.379V115.861H126.89625V110.34375Z" fill="#E6E8EC"></path><path d="M137.93125 110.34375H132.414V115.861H137.93125V110.34375Z" fill="#E6E8EC"></path><path d="M143.449 110.34375H137.93175V115.861H143.449V110.34375Z" fill="#E6E8EC"></path><path d="M148.9645 110.34375H143.44725V115.861H148.9645V110.34375Z" fill="#E6E8EC"></path><path d="M60.69 115.8595H55.17275V121.3765H60.69V115.8595Z" fill="#E6E8EC"></path><path d="M66.20675 115.8595H60.6895V121.3765H66.20675V115.8595Z" fill="#E6E8EC"></path><path d="M71.72425 115.8595H66.207V121.3765H71.72425V115.8595Z" fill="#E6E8EC"></path><path d="M77.24175 115.8595H71.7245V121.3765H77.24175V115.8595Z" fill="#E6E8EC"></path><path d="M93.7935 115.8595H88.27625V121.3765H93.7935V115.8595Z" fill="#E6E8EC"></path><path d="M104.82775 115.8595H99.3105V121.3765H104.82775V115.8595Z" fill="#E6E8EC"></path><path d="M126.89625 115.8595H121.379V121.3765H126.89625V115.8595Z" fill="#E6E8EC"></path><path d="M132.41475 115.8595H126.8975V121.3765H132.41475V115.8595Z" fill="#E6E8EC"></path><path d="M60.69 121.377H55.17275V126.89425H60.69V121.377Z" fill="#E6E8EC"></path><path d="M71.72425 121.377H66.207V126.89425H71.72425V121.377Z" fill="#E6E8EC"></path><path d="M77.24075 121.377H71.72375V126.89425H77.24075V121.377Z" fill="#E6E8EC"></path><path d="M82.7585 121.377H77.24125V126.89425H82.7585V121.377Z" fill="#E6E8EC"></path><path d="M88.276 121.377H82.75875V126.89425H88.276V121.377Z" fill="#E6E8EC"></path><path d="M93.7935 121.377H88.27625V126.89425H93.7935V121.377Z" fill="#E6E8EC"></path><path d="M99.31025 121.377H93.793V126.89425H99.31025V121.377Z" fill="#E6E8EC"></path><path d="M104.82675 121.377H99.3095V126.89425H104.82675V121.377Z" fill="#E6E8EC"></path><path d="M110.34525 121.377H104.828V126.89425H110.34525V121.377Z" fill="#E6E8EC"></path><path d="M115.862 121.377H110.34475V126.89425H115.862V121.377Z" fill="#E6E8EC"></path><path d="M121.3795 121.377H115.86225V126.89425H121.3795V121.377Z" fill="#E6E8EC"></path><path d="M126.89625 121.377H121.379V126.89425H126.89625V121.377Z" fill="#E6E8EC"></path><path d="M137.93125 121.377H132.414V126.89425H137.93125V121.377Z" fill="#E6E8EC"></path><path d="M60.69 126.8945H55.17275V132.41175H60.69V126.8945Z" fill="#E6E8EC"></path><path d="M71.72425 126.8945H66.207V132.41175H71.72425V126.8945Z" fill="#E6E8EC"></path><path d="M77.24175 126.8945H71.7245V132.41175H77.24175V126.8945Z" fill="#E6E8EC"></path><path d="M93.7935 126.8945H88.27625V132.41175H93.7935V126.8945Z" fill="#E6E8EC"></path><path d="M110.34525 126.8945H104.828V132.41175H110.34525V126.8945Z" fill="#E6E8EC"></path><path d="M115.863 126.8945H110.34575V132.41175H115.863V126.8945Z" fill="#E6E8EC"></path><path d="M126.89625 126.8945H121.379V132.41175H126.89625V126.8945Z" fill="#E6E8EC"></path><path d="M132.41475 126.8945H126.8975V132.41175H132.41475V126.8945Z" fill="#E6E8EC"></path><path d="M137.93125 126.8945H132.414V132.41175H137.93125V126.8945Z" fill="#E6E8EC"></path><path d="M143.449 126.8945H137.93175V132.41175H143.449V126.8945Z" fill="#E6E8EC"></path><path d="M148.9645 126.8945H143.44725V132.41175H148.9645V126.8945Z" fill="#E6E8EC"></path><path d="M60.69 132.412H55.17275V137.92925H60.69V132.412Z" fill="#E6E8EC"></path><path d="M66.20675 132.412H60.6895V137.92925H66.20675V132.412Z" fill="#E6E8EC"></path><path d="M82.7585 132.412H77.24125V137.92925H82.7585V132.412Z" fill="#E6E8EC"></path><path d="M99.31025 132.412H93.793V137.92925H99.31025V132.412Z" fill="#E6E8EC"></path><path d="M104.82675 132.412H99.3095V137.92925H104.82675V132.412Z" fill="#E6E8EC"></path><path d="M132.41475 132.412H126.8975V137.92925H132.41475V132.412Z" fill="#E6E8EC"></path><path d="M137.93125 132.412H132.414V137.92925H137.93125V132.412Z" fill="#E6E8EC"></path><path d="M148.9645 132.412H143.44725V137.92925H148.9645V132.412Z" fill="#E6E8EC"></path><path d="M66.20675 137.92775H60.6895V143.445H66.20675V137.92775Z" fill="#E6E8EC"></path><path d="M71.72425 137.92775H66.207V143.445H71.72425V137.92775Z" fill="#E6E8EC"></path><path d="M77.24075 137.92775H71.72375V143.445H77.24075V137.92775Z" fill="#E6E8EC"></path><path d="M82.7585 137.92775H77.24125V143.445H82.7585V137.92775Z" fill="#E6E8EC"></path><path d="M99.31025 137.92775H93.793V143.445H99.31025V137.92775Z" fill="#E6E8EC"></path><path d="M104.82675 137.92775H99.3095V143.445H104.82675V137.92775Z" fill="#E6E8EC"></path><path d="M110.34525 137.92775H104.828V143.445H110.34525V137.92775Z" fill="#E6E8EC"></path><path d="M121.3795 137.92775H115.86225V143.445H121.3795V137.92775Z" fill="#E6E8EC"></path><path d="M126.89625 137.92775H121.379V143.445H126.89625V137.92775Z" fill="#E6E8EC"></path><path d="M132.41475 137.92775H126.8975V143.445H132.41475V137.92775Z" fill="#E6E8EC"></path><path d="M148.9645 137.92775H143.44725V143.445H148.9645V137.92775Z" fill="#E6E8EC"></path><path d="M60.69 143.44725H55.17275V148.9645H60.69V143.44725Z" fill="#E6E8EC"></path><path d="M88.276 143.44725H82.75875V148.9645H88.276V143.44725Z" fill="#E6E8EC"></path><path d="M93.7935 143.44725H88.27625V148.9645H93.7935V143.44725Z" fill="#E6E8EC"></path><path d="M115.862 143.44725H110.34475V148.9645H115.862V143.44725Z" fill="#E6E8EC"></path><path d="M121.3795 143.44725H115.86225V148.9645H121.3795V143.44725Z" fill="#E6E8EC"></path><path d="M126.89625 143.44725H121.379V148.9645H126.89625V143.44725Z" fill="#E6E8EC"></path><path d="M132.41475 143.44725H126.8975V148.9645H132.41475V143.44725Z" fill="#E6E8EC"></path><path d="M137.93125 143.44725H132.414V148.9645H137.93125V143.44725Z" fill="#E6E8EC"></path><path d="M143.449 143.44725H137.93175V148.9645H143.449V143.44725Z" fill="#E6E8EC"></path><path d="M148.9645 143.44725H143.44725V148.9645H148.9645V143.44725Z" fill="#E6E8EC"></path><path d="M43.86175 11.0332H16.827275H11.034175V16.8263V43.86075V49.654H16.827275H43.86175H49.65475V43.86075V16.8263V11.0332H43.86175ZM43.86175 43.86075H16.827275V16.8263H43.86175V43.86075Z" fill="#E6E8EC"></path><path d="M143.17225 11.0332H116.13775H110.34475V16.8263V43.86075V49.654H116.13775H143.17225H148.9655V43.86075V16.8263V11.0332H143.17225ZM143.17225 43.86075H116.13775V16.8263H143.17225V43.86075Z" fill="#E6E8EC"></path><path d="M43.86275 110.34375H16.82825H11.03515V116.13675V143.17125V148.9645H16.82825H43.86275H49.65575V143.17125V116.13675V110.34375H43.86275ZM43.86275 143.17125H16.82825V116.13675H43.86275V143.17125Z" fill="#E6E8EC"></path><path d="M38.621 22.06835H22.069325V38.62H38.621V22.06835Z" fill="#E6E8EC"></path><path d="M137.93075 22.06835H121.379V38.62H137.93075V22.06835Z" fill="#E6E8EC"></path><path d="M38.621 121.377H22.069325V137.92875H38.621V121.377Z" fill="#E6E8EC"></path></svg> 