<?xml version="1.0" encoding="UTF-8"?> <svg xmlns="http://www.w3.org/2000/svg" width="39" height="40" viewBox="0 0 39 40" fill="none"><rect y="0.75" width="39" height="39" rx="19.5" fill="#E6E8EC"></rect><path d="M17.1702 10.0516C17.0279 9.90757 16.8467 9.80949 16.6494 9.76977C16.4522 9.73005 16.2478 9.75047 16.0619 9.82846C15.8761 9.90644 15.7173 10.0385 15.6055 10.2079C15.4937 10.3774 15.4339 10.5766 15.4337 10.7804V18.5828L11.6664 15.4806C11.5629 15.3937 11.4434 15.3285 11.3148 15.2886C11.1863 15.2488 11.0513 15.2352 10.9175 15.2486C10.7838 15.262 10.654 15.3021 10.5356 15.3666C10.4172 15.4311 10.3126 15.5188 10.2279 15.6245C10.1431 15.7302 10.0799 15.8519 10.0418 15.9825C10.0036 16.1132 9.99145 16.2502 10.0059 16.3856C10.0203 16.5211 10.0611 16.6523 10.1258 16.7717C10.1905 16.891 10.2779 16.9962 10.383 17.0812L14.8382 20.75L10.383 24.4188C10.1764 24.5922 10.0457 24.8413 10.0194 25.1119C9.99301 25.3825 10.0731 25.6526 10.2423 25.8636C10.4115 26.0746 10.656 26.2094 10.9227 26.2386C11.1894 26.2677 11.4567 26.189 11.6664 26.0194L15.4337 22.9172V30.7196C15.4339 30.9234 15.4937 31.1226 15.6055 31.2921C15.7173 31.4615 15.8761 31.5936 16.0619 31.6715C16.2478 31.7495 16.4522 31.77 16.6494 31.7302C16.8467 31.6905 17.0279 31.5924 17.1702 31.4484L22.5967 25.9479C22.6974 25.8459 22.7758 25.7235 22.8269 25.5888C22.878 25.4541 22.9006 25.3101 22.8933 25.1659C22.886 25.0218 22.849 24.8809 22.7846 24.7522C22.7201 24.6235 22.6298 24.5099 22.5194 24.4188L18.0642 20.75L22.5194 17.0812C22.6298 16.9901 22.7201 16.8765 22.7846 16.7478C22.849 16.6191 22.886 16.4782 22.8933 16.3341C22.9006 16.1899 22.878 16.0459 22.8269 15.9112C22.7758 15.7765 22.6974 15.6541 22.5967 15.5521L17.1702 10.0516ZM17.4687 28.2306V22.9172L20.361 25.2989L17.4687 28.2306ZM20.361 16.2011L17.4687 18.5828V13.2708L20.361 16.2011ZM27.9879 16.1819C27.8721 15.9348 27.6641 15.7445 27.4098 15.6528C27.1556 15.5611 26.8758 15.5756 26.632 15.693C26.3882 15.8105 26.2005 16.0212 26.11 16.279C26.0196 16.5367 26.0339 16.8204 26.1497 17.0674C26.672 18.1813 26.965 19.4299 26.965 20.75C26.965 22.0701 26.672 23.3173 26.1497 24.4326C26.0339 24.6796 26.0196 24.9633 26.11 25.221C26.2005 25.4788 26.3882 25.6895 26.632 25.807C26.8758 25.9244 27.1556 25.9389 27.4098 25.8472C27.6641 25.7555 27.8721 25.5652 27.9879 25.3181C28.6573 23.891 29.0031 22.3302 29 20.75C29.0031 19.1698 28.6573 17.609 27.9879 16.1819ZM23.9167 17.7385C24.1714 17.6485 24.451 17.6647 24.694 17.7836C24.9369 17.9024 25.1234 18.1143 25.2123 18.3724C25.47 19.1191 25.6084 19.9194 25.6084 20.7514C25.6084 21.5833 25.47 22.3836 25.2123 23.1303C25.1195 23.3834 24.9326 23.5894 24.6916 23.7043C24.4506 23.8192 24.1748 23.8338 23.9234 23.7449C23.6719 23.656 23.4649 23.4707 23.3467 23.2288C23.2285 22.9869 23.2086 22.7076 23.2913 22.451C23.4744 21.9202 23.5735 21.3482 23.5735 20.7514C23.5735 20.1546 23.4744 19.5825 23.2913 19.0517C23.2025 18.7935 23.2185 18.5101 23.3358 18.2639C23.453 18.0176 23.662 17.8286 23.9167 17.7385Z" fill="#001F98"></path></svg> 