<?xml version="1.0" encoding="UTF-8"?> <svg xmlns="http://www.w3.org/2000/svg" width="646" height="401" viewBox="0 0 646 401" fill="none"><path d="M565.504 155.142C566.218 150.72 566.605 146.205 566.605 141.604C566.605 90.2753 524.265 44.8843 467.373 44.8843C438.534 44.8843 412.474 59.3744 393.774 76.6065C382.806 34.6357 346.19 0 302.674 0C254.857 0 215.364 37.2551 209.097 85.5842C199.953 81.6041 189.94 79.3852 179.425 79.3852C144.829 79.3852 119.327 110.744 109.396 143.569C105.124 142.964 100.762 142.633 96.3227 142.633C45.2093 142.633 0 176.562 0 227.752C0 278.937 41.435 320.434 92.5444 320.434C104.418 320.434 115.753 318.17 126.186 314.092C133.225 348.576 163.688 374.521 200.202 374.521C218.6 374.521 235.451 367.921 248.553 356.974C266.963 383.572 297.647 401 332.411 401C369.357 401 401.714 381.324 419.606 351.866C435.523 365.956 456.43 374.521 479.345 374.521C521.539 374.521 549.158 341.822 559.053 302.646C559.604 302.658 642.156 310.214 645.93 228.88C647.905 186.353 607.906 155.571 565.504 155.142Z" fill="white"></path></svg> 